<?xml version="1.0" encoding="utf-8"?>
<!-- Generator: Adobe Illustrator 14.0.0, SVG Export Plug-In . SVG Version: 6.00 Build 43363)  -->
<!DOCTYPE svg PUBLIC "-//W3C//DTD SVG 1.1//EN" "http://www.w3.org/Graphics/SVG/1.1/DTD/svg11.dtd">
<svg version="1.1" id="Layer_1" xmlns="http://www.w3.org/2000/svg" xmlns:xlink="http://www.w3.org/1999/xlink" x="0px" y="0px"
	 width="80px" height="80px" viewBox="0 0 80 80" xml:space="preserve">
<g>
	<path d="M6.449,65.776c0.089-0.175,0.201-0.308,0.341-0.397c0.133-0.088,0.288-0.146,0.465-0.178
		c0.122-0.025,0.315-0.038,0.58-0.038v1.917c0.27-0.009,0.483-0.071,0.646-0.189c0.161-0.116,0.241-0.298,0.241-0.544
		c0-0.229-0.074-0.411-0.229-0.549c-0.091-0.076-0.192-0.13-0.31-0.163v-0.435c0.097,0.012,0.204,0.05,0.321,0.113
		c0.12,0.064,0.219,0.138,0.293,0.217c0.131,0.135,0.221,0.3,0.267,0.496c0.024,0.104,0.04,0.225,0.04,0.358
		c0,0.325-0.121,0.603-0.358,0.828c-0.24,0.227-0.573,0.34-1.003,0.34c-0.422,0-0.766-0.113-1.03-0.342s-0.396-0.526-0.396-0.896
		C6.318,66.13,6.361,65.95,6.449,65.776z M7.483,65.618c-0.191,0.018-0.347,0.059-0.459,0.122c-0.214,0.12-0.321,0.322-0.321,0.604
		c0,0.202,0.075,0.371,0.22,0.506c0.147,0.139,0.335,0.211,0.562,0.22L7.483,65.618L7.483,65.618z"/>
	<path d="M5.397,64.601v-0.45h0.502v0.45H5.397z M6.39,64.601v-0.45h2.622v0.45H6.39z"/>
	<path d="M6.377,63.483v-0.421H6.75c-0.153-0.125-0.264-0.256-0.33-0.396c-0.068-0.141-0.102-0.296-0.102-0.468
		c0-0.372,0.129-0.626,0.39-0.757c0.144-0.071,0.348-0.107,0.614-0.107h1.688v0.451H7.35c-0.16,0-0.289,0.021-0.389,0.069
		c-0.163,0.079-0.246,0.223-0.246,0.428c0,0.105,0.012,0.192,0.032,0.26c0.035,0.122,0.107,0.229,0.217,0.318
		c0.086,0.075,0.177,0.122,0.27,0.145c0.094,0.022,0.226,0.035,0.396,0.035h1.381v0.441L6.377,63.483L6.377,63.483z"/>
	<path d="M5.573,60.474c-0.151-0.104-0.228-0.302-0.228-0.598c0-0.027,0.001-0.058,0.002-0.087c0.002-0.029,0.005-0.063,0.009-0.1
		h0.401c-0.002,0.045-0.004,0.078-0.005,0.1c0,0.021-0.002,0.041-0.002,0.06c0,0.136,0.036,0.216,0.104,0.243
		c0.07,0.027,0.246,0.041,0.532,0.041v-0.442h0.35v0.442H9.01v0.438H6.737v0.365h-0.35v-0.365H5.974
		C5.792,60.564,5.658,60.531,5.573,60.474z"/>
	<path d="M7.417,57.87c-0.013-0.103-0.056-0.172-0.127-0.205c-0.04-0.021-0.097-0.028-0.171-0.028c-0.151,0-0.263,0.055-0.33,0.159
		c-0.067,0.108-0.104,0.262-0.104,0.461c0,0.23,0.063,0.395,0.188,0.491c0.069,0.054,0.173,0.09,0.31,0.105v0.412
		c-0.325-0.007-0.553-0.113-0.68-0.315c-0.127-0.201-0.189-0.437-0.189-0.703c0-0.31,0.059-0.562,0.177-0.755
		c0.117-0.19,0.301-0.285,0.55-0.285H8.56c0.046,0,0.082-0.012,0.11-0.029c0.028-0.019,0.042-0.06,0.042-0.118
		c0-0.021-0.002-0.043-0.003-0.067c-0.004-0.024-0.007-0.052-0.013-0.078h0.327c0.021,0.068,0.032,0.122,0.036,0.156
		c0.007,0.036,0.009,0.085,0.009,0.147c0,0.152-0.055,0.264-0.162,0.334c-0.058,0.035-0.14,0.06-0.244,0.074
		c0.118,0.091,0.222,0.22,0.308,0.389c0.087,0.17,0.131,0.356,0.131,0.56c0,0.245-0.073,0.443-0.223,0.6
		c-0.147,0.154-0.334,0.231-0.556,0.231c-0.244,0-0.435-0.076-0.567-0.229c-0.135-0.152-0.217-0.354-0.248-0.602L7.417,57.87z
		 M8.613,58.802c0.073-0.094,0.108-0.203,0.108-0.331c0-0.156-0.034-0.307-0.106-0.452c-0.12-0.246-0.314-0.369-0.587-0.369H7.672
		c0.034,0.056,0.063,0.123,0.086,0.208c0.024,0.085,0.04,0.169,0.051,0.25l0.033,0.269c0.021,0.161,0.056,0.279,0.102,0.361
		c0.078,0.138,0.2,0.205,0.368,0.205C8.439,58.942,8.54,58.895,8.613,58.802z"/>
	<path d="M6.518,54.74c0.144-0.186,0.392-0.298,0.744-0.336v0.433c-0.163,0.024-0.298,0.085-0.404,0.178
		c-0.107,0.095-0.161,0.244-0.161,0.451c0,0.282,0.138,0.482,0.413,0.604c0.178,0.078,0.398,0.118,0.66,0.118
		c0.265,0,0.486-0.056,0.664-0.167c0.183-0.11,0.271-0.288,0.271-0.526c0-0.185-0.057-0.33-0.168-0.437
		c-0.112-0.109-0.266-0.182-0.459-0.223v-0.433c0.35,0.05,0.604,0.174,0.766,0.369c0.162,0.196,0.242,0.449,0.242,0.756
		c0,0.345-0.125,0.618-0.378,0.823c-0.251,0.204-0.565,0.309-0.942,0.309c-0.463,0-0.822-0.113-1.08-0.339
		c-0.258-0.225-0.387-0.51-0.387-0.856C6.3,55.168,6.372,54.927,6.518,54.74z"/>
	<path d="M5.386,53.961v-0.442h1.349c-0.134-0.104-0.228-0.198-0.28-0.281c-0.094-0.143-0.14-0.32-0.14-0.534
		c0-0.382,0.133-0.642,0.399-0.777c0.146-0.073,0.349-0.109,0.608-0.109h1.688v0.454H7.35c-0.192,0-0.335,0.024-0.425,0.074
		c-0.145,0.08-0.218,0.23-0.218,0.452c0,0.184,0.063,0.352,0.189,0.501c0.127,0.146,0.364,0.222,0.717,0.222H9.01v0.442
		L5.386,53.961L5.386,53.961z"/>
</g>
<g>
	<path d="M70.849,4.918v0.425h-2.097l1.119,1.136v0.566l-0.98-1.013l-1.652,1.068V6.534l1.341-0.827l-0.353-0.364h-0.988V4.918
		H70.849L70.849,4.918z"/>
	<path d="M69.607,9.355c-0.226,0.233-0.559,0.35-0.998,0.35c-0.423,0-0.773-0.104-1.052-0.308c-0.276-0.205-0.416-0.523-0.416-0.955
		c0-0.359,0.124-0.646,0.368-0.857c0.246-0.212,0.573-0.316,0.987-0.316c0.44,0,0.793,0.111,1.056,0.334
		c0.264,0.224,0.396,0.522,0.396,0.899C69.948,8.838,69.834,9.122,69.607,9.355z M67.856,9.08c0.224,0.106,0.47,0.16,0.74,0.16
		c0.246,0,0.446-0.037,0.601-0.114c0.242-0.124,0.365-0.337,0.365-0.639c0-0.269-0.104-0.463-0.313-0.584
		c-0.205-0.123-0.455-0.182-0.746-0.182c-0.281,0-0.514,0.059-0.7,0.182c-0.186,0.121-0.279,0.314-0.279,0.579
		C67.524,8.773,67.635,8.971,67.856,9.08z"/>
	<path d="M69.871,10.248v0.438h-0.374c0.13,0.105,0.224,0.199,0.283,0.285c0.1,0.146,0.149,0.312,0.149,0.497
		c0,0.21-0.052,0.379-0.153,0.507c-0.061,0.071-0.147,0.138-0.263,0.196c0.142,0.099,0.244,0.215,0.313,0.347
		c0.068,0.133,0.104,0.282,0.104,0.448c0,0.354-0.129,0.595-0.385,0.723c-0.138,0.068-0.323,0.104-0.556,0.104h-1.753v-0.46h1.83
		c0.176,0,0.295-0.044,0.359-0.133c0.065-0.087,0.1-0.193,0.1-0.319c0-0.174-0.059-0.323-0.174-0.449
		c-0.117-0.125-0.313-0.188-0.584-0.188h-1.531v-0.45h1.719c0.179,0,0.31-0.021,0.392-0.064c0.123-0.065,0.185-0.191,0.185-0.376
		c0-0.168-0.063-0.319-0.194-0.457c-0.129-0.136-0.364-0.205-0.703-0.205h-1.396V10.25h2.633V10.248z"/>
	<path d="M69.871,14.443v0.438h-0.374c0.13,0.104,0.224,0.201,0.283,0.286c0.1,0.145,0.149,0.311,0.149,0.496
		c0,0.211-0.052,0.379-0.153,0.507c-0.061,0.071-0.147,0.138-0.263,0.196c0.142,0.1,0.244,0.215,0.313,0.348
		s0.104,0.281,0.104,0.448c0,0.354-0.129,0.595-0.385,0.722c-0.138,0.068-0.323,0.104-0.556,0.104h-1.753v-0.461h1.83
		c0.176,0,0.295-0.043,0.359-0.13c0.065-0.089,0.1-0.196,0.1-0.322c0-0.175-0.059-0.321-0.174-0.447
		c-0.117-0.126-0.313-0.189-0.584-0.189h-1.531v-0.45h1.719c0.179,0,0.31-0.021,0.392-0.063c0.123-0.067,0.185-0.193,0.185-0.376
		c0-0.167-0.063-0.318-0.194-0.455c-0.129-0.138-0.364-0.206-0.703-0.206h-1.396v-0.443h2.633V14.443z"/>
	<path d="M69.859,18.602v0.434h-0.351c0.119,0.089,0.211,0.187,0.278,0.29c0.098,0.15,0.146,0.325,0.146,0.527
		c0,0.3-0.113,0.554-0.344,0.763c-0.229,0.21-0.555,0.313-0.979,0.313c-0.573,0-0.983-0.15-1.229-0.452
		c-0.154-0.188-0.233-0.412-0.233-0.666c0-0.198,0.044-0.366,0.131-0.5c0.051-0.08,0.133-0.168,0.254-0.266h-1.346v-0.442H69.859
		L69.859,18.602z M67.794,20.268c0.172,0.137,0.433,0.206,0.776,0.206c0.21,0,0.391-0.031,0.541-0.091
		c0.29-0.116,0.435-0.326,0.435-0.633c0-0.309-0.151-0.52-0.46-0.631c-0.163-0.063-0.371-0.093-0.625-0.093
		c-0.202,0-0.375,0.03-0.518,0.093c-0.272,0.114-0.408,0.324-0.408,0.631C67.535,19.959,67.62,20.131,67.794,20.268z"/>
	<path d="M69.799,23.067c-0.089,0.177-0.202,0.309-0.341,0.399c-0.133,0.087-0.288,0.146-0.465,0.176
		c-0.123,0.025-0.315,0.039-0.58,0.039v-1.916c-0.271,0.008-0.483,0.071-0.646,0.188c-0.16,0.117-0.242,0.3-0.242,0.544
		c0,0.229,0.075,0.412,0.229,0.549c0.091,0.077,0.193,0.132,0.312,0.164v0.435c-0.099-0.012-0.205-0.049-0.323-0.113
		c-0.12-0.065-0.216-0.138-0.292-0.219c-0.13-0.132-0.221-0.297-0.267-0.494c-0.024-0.105-0.04-0.226-0.04-0.357
		c0-0.327,0.121-0.604,0.359-0.828c0.238-0.229,0.572-0.341,1.001-0.341c0.425,0,0.768,0.113,1.031,0.343
		c0.265,0.228,0.396,0.524,0.396,0.894C69.931,22.713,69.886,22.893,69.799,23.067z M68.765,23.225
		c0.191-0.017,0.345-0.058,0.46-0.123c0.214-0.121,0.319-0.321,0.319-0.602c0-0.202-0.073-0.372-0.219-0.509
		c-0.148-0.137-0.335-0.209-0.562-0.218L68.765,23.225L68.765,23.225z"/>
	<path d="M70.606,24.33v0.447h-0.735v0.421H69.51v-0.421h-1.72c-0.092,0-0.154,0.031-0.184,0.094
		c-0.02,0.034-0.027,0.093-0.027,0.173c0,0.021,0,0.045,0.001,0.068c0.002,0.023,0.005,0.054,0.008,0.086h-0.351
		c-0.016-0.052-0.025-0.104-0.032-0.157c-0.007-0.057-0.011-0.116-0.011-0.181c0-0.206,0.054-0.347,0.158-0.42
		c0.107-0.074,0.244-0.11,0.413-0.11h1.743v-0.356h0.361v0.356H70.606z"/>
	<path d="M69.799,27.269c-0.089,0.174-0.202,0.307-0.341,0.398c-0.133,0.087-0.288,0.146-0.465,0.176
		c-0.123,0.025-0.315,0.039-0.58,0.039v-1.917c-0.271,0.009-0.483,0.072-0.646,0.188c-0.16,0.117-0.242,0.3-0.242,0.543
		c0,0.231,0.075,0.414,0.229,0.552c0.091,0.075,0.193,0.131,0.312,0.161v0.436c-0.099-0.011-0.205-0.049-0.323-0.113
		c-0.12-0.063-0.216-0.137-0.292-0.218c-0.13-0.133-0.221-0.298-0.267-0.495c-0.024-0.105-0.04-0.226-0.04-0.358
		c0-0.324,0.121-0.602,0.359-0.827c0.238-0.227,0.572-0.341,1.001-0.341c0.425,0,0.768,0.113,1.031,0.343
		c0.265,0.228,0.396,0.525,0.396,0.895C69.931,26.915,69.886,27.094,69.799,27.269z M68.765,27.427
		c0.191-0.017,0.345-0.059,0.46-0.123c0.214-0.12,0.319-0.321,0.319-0.603c0-0.202-0.073-0.371-0.219-0.509
		c-0.148-0.137-0.335-0.209-0.562-0.218L68.765,27.427L68.765,27.427z"/>
	<path d="M69.871,28.443v0.421h-0.374c0.154,0.124,0.265,0.257,0.331,0.396c0.067,0.14,0.103,0.294,0.103,0.465
		c0,0.373-0.131,0.626-0.393,0.757c-0.143,0.072-0.346,0.108-0.61,0.108h-1.689v-0.45h1.66c0.159,0,0.289-0.023,0.388-0.071
		c0.164-0.079,0.246-0.221,0.246-0.429c0-0.104-0.011-0.189-0.031-0.258c-0.037-0.121-0.108-0.229-0.216-0.318
		c-0.088-0.074-0.178-0.122-0.271-0.145c-0.093-0.021-0.225-0.033-0.396-0.033h-1.38v-0.442L69.871,28.443L69.871,28.443z"/>
	<path d="M70.606,31.333v0.445h-0.735v0.423H69.51v-0.423h-1.72c-0.092,0-0.154,0.031-0.184,0.095
		c-0.02,0.034-0.027,0.093-0.027,0.173c0,0.021,0,0.044,0.001,0.068c0.002,0.024,0.005,0.055,0.008,0.087h-0.351
		c-0.016-0.053-0.025-0.104-0.032-0.158c-0.007-0.057-0.011-0.115-0.011-0.181c0-0.205,0.054-0.346,0.158-0.42
		c0.107-0.073,0.244-0.109,0.413-0.109h1.743v-0.356h0.361v0.356H70.606L70.606,31.333z"/>
</g>
<g>
	<polygon fill="#3B78AD" points="9.716,50.675 5.477,50.675 5.477,4.996 65.79,4.996 65.79,9.236 9.716,9.236 	"/>
</g>
<g>
	<path fill="#3B78AD" d="M36.259,41.003H24.454c-0.034,1.357,0.44,2.646,1.289,3.46c0.61,0.577,1.459,1.086,2.612,1.086
		c1.221,0,1.967-0.237,2.576-0.847c0.375-0.374,0.68-0.851,0.85-1.494h4.07c-0.103,1.052-0.814,2.442-1.492,3.258
		c-1.493,1.764-3.697,2.476-5.938,2.476c-2.408,0-4.173-0.849-5.562-2.171c-1.766-1.695-2.715-4.172-2.715-7.056
		c0-2.815,0.849-5.326,2.545-7.058c1.321-1.355,3.223-2.237,5.631-2.237c2.61,0,4.985,1.052,6.444,3.257
		c1.289,1.934,1.595,3.935,1.526,6.14C36.293,39.816,36.259,40.63,36.259,41.003z M30.967,34.829
		c-0.577-0.609-1.459-1.018-2.68-1.018c-1.289,0-2.341,0.542-2.951,1.356c-0.609,0.779-0.882,1.594-0.916,2.748h7.633
		C32.018,36.594,31.646,35.575,30.967,34.829z"/>
	<path fill="#3B78AD" d="M52.268,48.5l-4.952-7.7L44.5,43.853V48.5h-4.24V24.009h4.24V38.02l6.683-7.158h5.326l-6.311,6.818
		l6.987,10.82H52.268z"/>
</g>
<g>
	<polygon fill="#3B78AD" points="66.568,33.747 70.809,33.747 70.809,67.64 10.225,67.64 10.225,63.4 66.568,63.4 	"/>
</g>
</svg>
